<svg xmlns="http://www.w3.org/2000/svg" width="67.993" height="67.993" viewBox="0 0 67.993 67.993"><defs><style>.a{fill:#2d933f;}.b{fill:#fff;}</style></defs><g transform="translate(-2 -2.152)"><ellipse class="a" cx="33.997" cy="33.997" rx="33.997" ry="33.997" transform="translate(2 2.152)"/><g transform="translate(25 20.152)"><path class="b" d="M152.814,352a3.294,3.294,0,0,1-2.313,1.714c-3.186.991-5.156,2.405-5.538,3.942h15.7c-.382-1.537-2.353-2.951-5.538-3.942A3.294,3.294,0,0,1,152.814,352Z" transform="translate(-141.501 -328.808)"/><path class="b" d="M160.1,128a12.657,12.657,0,0,0,4.468,4.706,5.128,5.128,0,0,1,2.313,3.522,5.128,5.128,0,0,1,2.313-3.522A12.657,12.657,0,0,0,173.662,128Z" transform="translate(-155.568 -120.646)"/><path class="b" d="M110.845,37.965c4.048-2.588,6.65-6.614,6.65-11.137h0a1.131,1.131,0,0,0,1.131-1.131V24H96v1.626a1.2,1.2,0,0,0,1.131,1.2v0c0,4.522,2.6,8.548,6.65,11.137a2.9,2.9,0,0,1,0,4.878c-4.048,2.588-6.65,6.614-6.65,11.137v0A1.2,1.2,0,0,0,96,55.182v1.626h22.626v-1.7a1.131,1.131,0,0,0-1.131-1.131h0c0-4.522-2.6-8.548-6.65-11.137A2.9,2.9,0,0,1,110.845,37.965ZM108.379,40.4a4.008,4.008,0,0,0,1.856,3.392c3.895,2.49,6.128,6.2,6.128,10.184h-18.1c0-3.982,2.234-7.694,6.128-10.184a4.028,4.028,0,0,0,0-6.784c-3.895-2.49-6.128-6.2-6.128-10.184h18.1c0,3.982-2.234,7.694-6.128,10.184A4.008,4.008,0,0,0,108.379,40.4Z" transform="translate(-96 -24)"/><path class="b" d="M249.03,266.125a.53.53,0,0,0,.53-.53v-.565a.53.53,0,1,0-1.061,0v.565A.53.53,0,0,0,249.03,266.125Z" transform="translate(-237.717 -247.495)"/><path class="b" d="M248.5,305.6a.53.53,0,1,0,1.061,0v-.565a.53.53,0,0,0-1.061,0Z" transform="translate(-237.717 -284.667)"/></g></g></svg>