<svg xmlns="http://www.w3.org/2000/svg" width="48" height="48" viewBox="0 0 48 48"><defs><style>.a{fill:#fff;}.b{fill:#2d933f;stroke:#fff;}</style></defs><g transform="translate(-1258 -30)"><circle class="a" cx="24" cy="24" r="24" transform="translate(1258 30)"/><path class="b" d="M22.77,18.3h0l-6.184-6.184L22.77,5.936h0a.639.639,0,0,0,0-.9L19.848,2.114a.639.639,0,0,0-.9,0h0L12.763,8.3,6.579,2.114h0a.639.639,0,0,0-.9,0L2.757,5.036a.639.639,0,0,0,0,.9h0l6.184,6.184L2.757,18.3h0a.638.638,0,0,0,0,.9l2.921,2.921a.639.639,0,0,0,.9,0h0l6.184-6.184,6.184,6.184h0a.638.638,0,0,0,.9,0l2.921-2.921a.638.638,0,0,0,0-.9Z" transform="translate(1268.929 41.572)"/></g></svg>