<svg xmlns="http://www.w3.org/2000/svg" width="84" height="84" viewBox="0 0 84 84"><defs><style>.a{fill:#2d933f;}.b{fill:#fff;}</style></defs><g transform="translate(0.337 0.203)"><path class="a" d="M42,0A42,42,0,1,1,0,42,42,42,0,0,1,42,0Z" transform="translate(-0.337 -0.203)"/><g transform="translate(26.663 19.797)"><path class="b" d="M155.467,352c-.308.938-1.416,1.771-3.094,2.294-4.262,1.326-6.9,3.218-7.409,5.274H165.97c-.511-2.056-3.147-3.948-7.409-5.274C156.883,353.771,155.774,352.938,155.467,352Z" transform="translate(-140.331 -320.973)"/><path class="b" d="M160.1,128a16.933,16.933,0,0,0,5.977,6.3,6.86,6.86,0,0,1,3.094,4.712,6.86,6.86,0,0,1,3.094-4.712,16.933,16.933,0,0,0,5.977-6.3Z" transform="translate(-154.036 -118.162)"/><path class="b" d="M115.86,42.683c5.416-3.463,8.9-8.849,8.9-14.9h0a1.514,1.514,0,0,0,1.514-1.514V24H96v2.176a1.607,1.607,0,0,0,1.514,1.6v0c0,6.05,3.481,11.436,8.9,14.9a3.875,3.875,0,0,1,0,6.526c-5.416,3.463-8.9,8.849-8.9,14.9v0A1.607,1.607,0,0,0,96,65.716v2.176h30.27v-2.27a1.514,1.514,0,0,0-1.514-1.514h0c0-6.05-3.481-11.436-8.9-14.9A3.875,3.875,0,0,1,115.86,42.683Zm-3.3,3.263a5.362,5.362,0,0,0,2.483,4.538c5.21,3.331,8.2,8.3,8.2,13.624H99.027c0-5.327,2.988-10.293,8.2-13.624a5.388,5.388,0,0,0,0-9.076c-5.21-3.331-8.2-8.3-8.2-13.624h24.216c0,5.327-2.988,10.293-8.2,13.624A5.362,5.362,0,0,0,112.562,45.946Z" transform="translate(-96 -24)"/><path class="b" d="M249.209,266.674a.709.709,0,0,0,.709-.709v-.756a.709.709,0,1,0-1.419,0v.756A.709.709,0,0,0,249.209,266.674Z" transform="translate(-234.074 -241.75)"/><path class="b" d="M248.5,305.965a.709.709,0,1,0,1.419,0v-.756a.709.709,0,0,0-1.419,0Z" transform="translate(-234.074 -277.966)"/></g></g></svg>