<svg xmlns="http://www.w3.org/2000/svg" width="100" height="100" viewBox="0 0 100 100"><defs><style>.a{fill:#2d933f;}.b{fill:#fff;stroke:#2d933f;stroke-width:0.3px;}</style></defs><g transform="translate(-226 -1010.152)"><circle class="a" cx="50" cy="50" r="50" transform="translate(226 1010.152)"/><g transform="translate(252 1036.152)"><g transform="translate(12.665 19.397)"><path class="b" d="M136.107,206.276a.941.941,0,1,0,.276.666A.949.949,0,0,0,136.107,206.276Z" transform="translate(-134.5 -206)"/></g><g transform="translate(0)"><path class="b" d="M45.389,0H7.912A2.828,2.828,0,0,0,5.087,2.825V18.456a2.828,2.828,0,0,0,2.825,2.825H9.607a.942.942,0,1,0,0-1.883H7.912a.943.943,0,0,1-.942-.942V2.825a.943.943,0,0,1,.942-.942H45.389a.943.943,0,0,1,.942.942V18.456a.943.943,0,0,1-.942.942h-6.3a.942.942,0,0,0-.666.276l-3.1,3.1-3.1-3.1a.942.942,0,0,0-.666-.276H24.214a5.529,5.529,0,0,0-.236-.525,5.358,5.358,0,0,0-3.231-2.7l-1.361-.414a.941.941,0,0,0-1.159.581l-2.139,5.912a7.125,7.125,0,0,1-3.3,3.836l-2.008,1.093A2.684,2.684,0,0,0,8.708,26.2H2.691A2.692,2.692,0,0,0,0,28.892V45.522a2.691,2.691,0,0,0,2.688,2.689H8.708A2.688,2.688,0,0,0,10.953,47l.961.377a12.043,12.043,0,0,0,4.416.835H29.035a3.455,3.455,0,0,0,2.99-5.189,3.455,3.455,0,0,0,1.933-5.07,3.456,3.456,0,0,0-.17-6.575,3.455,3.455,0,0,0-3-5.174H23.239l1.056-3.135a5.411,5.411,0,0,0,.284-1.788h6.589l3.491,3.491a.942.942,0,0,0,1.332,0l3.491-3.491h5.908a2.828,2.828,0,0,0,2.825-2.825V2.825A2.828,2.828,0,0,0,45.389,0ZM9.514,45.523a.806.806,0,0,1-.805.805H2.691a.806.806,0,0,1-.805-.805V28.892a.806.806,0,0,1,.805-.805H4.758V39.68a.942.942,0,0,0,1.883,0V28.087H8.708a.806.806,0,0,1,.76.542.923.923,0,0,0,.034.135.807.807,0,0,1,.011.128V45.523ZM30.79,28.087h0a1.574,1.574,0,0,1,0,3.148H25.681a.942.942,0,0,0,0,1.883h7.128a1.574,1.574,0,0,1,0,3.148H25.681a.942.942,0,0,0,0,1.883h5.31a1.574,1.574,0,1,1,0,3.148h-5.31a.942.942,0,0,0,0,1.883h3.354a1.574,1.574,0,0,1,0,3.148H16.33a10.172,10.172,0,0,1-3.728-.7l-1.2-.473V29l2.3-1.25A9.006,9.006,0,0,0,17.858,22.9l1.835-5.072.506.154a3.518,3.518,0,0,1,2.311,4.489l-1.474,4.377a.942.942,0,0,0,.892,1.242Z" transform="translate(-0.003)"/></g><g transform="translate(33.877 5.52)"><path class="b" d="M369.794,62.229a1.5,1.5,0,0,0-1.214-1.023l-1.666-.242-.745-1.509a1.5,1.5,0,0,0-1.349-.838h0a1.5,1.5,0,0,0-1.349.839l-.744,1.509-1.666.242a1.5,1.5,0,0,0-.833,2.566l1.206,1.174-.284,1.659a1.5,1.5,0,0,0,2.183,1.585l1.49-.784,1.49.783a1.5,1.5,0,0,0,2.182-1.586l-.285-1.659,1.205-1.175A1.5,1.5,0,0,0,369.794,62.229Zm-3.043,1.508a1.5,1.5,0,0,0-.432,1.332l.189,1.1-.987-.518a1.5,1.5,0,0,0-1.4,0l-.986.519.188-1.1a1.5,1.5,0,0,0-.433-1.331l-.8-.778,1.1-.161a1.5,1.5,0,0,0,1.132-.823l.493-1,.493,1a1.5,1.5,0,0,0,1.133.823l1.1.16Z" transform="translate(-359.773 -58.617)"/></g><g transform="translate(21.898 5.52)"><path class="b" d="M242.581,62.229a1.5,1.5,0,0,0-1.215-1.023l-1.666-.242-.745-1.509a1.5,1.5,0,0,0-1.349-.838h0a1.5,1.5,0,0,0-1.349.839l-.744,1.509-1.666.242a1.5,1.5,0,0,0-.833,2.566l1.205,1.174-.284,1.659a1.5,1.5,0,0,0,2.183,1.585l1.49-.784,1.49.783a1.5,1.5,0,0,0,2.182-1.586L241,64.946l1.205-1.175A1.5,1.5,0,0,0,242.581,62.229Zm-3.043,1.508a1.5,1.5,0,0,0-.432,1.332l.189,1.1-.987-.518a1.5,1.5,0,0,0-1.4,0l-.986.519.188-1.1a1.5,1.5,0,0,0-.433-1.331l-.8-.778,1.1-.161a1.5,1.5,0,0,0,1.132-.823l.493-1,.493,1a1.5,1.5,0,0,0,1.133.823l1.1.16Z" transform="translate(-232.56 -58.617)"/></g><g transform="translate(9.919 5.52)"><path class="b" d="M115.368,62.229a1.5,1.5,0,0,0-1.214-1.023l-1.666-.242-.745-1.509a1.5,1.5,0,0,0-1.349-.838h0a1.5,1.5,0,0,0-1.349.839l-.744,1.509-1.666.242a1.5,1.5,0,0,0-.833,2.566l1.205,1.174-.284,1.659a1.5,1.5,0,0,0,2.183,1.585l1.49-.784,1.49.783a1.5,1.5,0,0,0,2.182-1.586l-.285-1.659,1.2-1.175A1.5,1.5,0,0,0,115.368,62.229Zm-3.043,1.508a1.5,1.5,0,0,0-.432,1.332l.189,1.1-.987-.518a1.5,1.5,0,0,0-1.4,0l-.986.519.188-1.1a1.5,1.5,0,0,0-.433-1.331l-.8-.778,1.1-.161a1.5,1.5,0,0,0,1.132-.823l.493-1,.493,1a1.5,1.5,0,0,0,1.133.823l1.1.16Z" transform="translate(-105.347 -58.617)"/></g><g transform="translate(4.755 42.124)"><path class="b" d="M51.446,447.359a.942.942,0,0,0-.942.942v.015a.942.942,0,1,0,1.883,0V448.3A.942.942,0,0,0,51.446,447.359Z" transform="translate(-50.504 -447.359)"/></g></g></g></svg>