<svg xmlns="http://www.w3.org/2000/svg" width="84" height="84" viewBox="0 0 84 84"><defs><style>.a{fill:#2d933f;}.b{fill:#fff;}</style></defs><g transform="translate(0.343 -0.456)"><circle class="a" cx="42" cy="42" r="42" transform="translate(-0.343 0.456)"/><path class="b" d="M15.276,44.874l-.7-.316A41.907,41.907,0,0,1-1.086,32.244a10.506,10.506,0,0,1-2.246-6.491V0l2.44,1.047A19.3,19.3,0,0,0,6.686,2.917,17.055,17.055,0,0,0,14.379.557l.9-.556.913.532a18.308,18.308,0,0,0,7.82,2.3A19.737,19.737,0,0,0,31.43,1.04L33.853.03V26a10.436,10.436,0,0,1-1.983,6.143A36.77,36.77,0,0,1,15.981,44.578ZM.168,5.213v20.54A6.993,6.993,0,0,0,1.66,30.074,38.456,38.456,0,0,0,15.332,41.047a33.164,33.164,0,0,0,13.7-10.952A6.956,6.956,0,0,0,30.353,26V5.19a19.987,19.987,0,0,1-6.344,1.14,20.806,20.806,0,0,1-8.68-2.295A19.7,19.7,0,0,1,6.686,6.417a20.282,20.282,0,0,1-6.518-1.2ZM26.122,16.141l-2.475-2.475-10.29,10.29-5.7-5.7L5.186,20.735l8.172,8.171Zm0,0" transform="translate(27.119 19.988)"/></g></svg>