<svg xmlns="http://www.w3.org/2000/svg" width="67.993" height="67.993" viewBox="0 0 67.993 67.993"><defs><style>.a{fill:#2d933f;}.b{fill:#fff;stroke:#2d933f;}</style></defs><g transform="translate(-2 -2.152)"><ellipse class="a" cx="33.997" cy="33.997" rx="33.997" ry="33.997" transform="translate(2 2.152)"/><path class="b" d="M39.262,7.159,30.819,0,28.432,2.753l8.444,7.159ZM13.38,2.937,10.994.184,2.55,7.159,4.936,9.912Zm8.444,8.444H19.071V22.395L27.7,27.718l1.468-2.2L21.824,21.11Zm-.918-7.343A16.521,16.521,0,1,0,37.427,20.559,16.452,16.452,0,0,0,20.906,4.038Zm0,29.37A12.849,12.849,0,1,1,33.756,20.559,12.77,12.77,0,0,1,20.906,33.408Z" transform="translate(14.7 16.684)"/></g></svg>