<svg xmlns="http://www.w3.org/2000/svg" width="84" height="84" viewBox="0 0 84 84"><defs><style>.a{fill:#2d933f;}.b{fill:#fff;}</style></defs><g transform="translate(-0.657 -0.037)"><circle class="a" cx="42" cy="42" r="42" transform="translate(0.657 0.037)"/><g transform="translate(10.88 14.463)"><path class="b" d="M322.165,172.109v17.643h3.747v-6.643c0-1.538.671-2.612,1.631-2.612,1.285,0,1.175,1.595,1.175,2.6,0,.006.024,6.66.024,6.66l3.747-.014-.024-6.636c.011-2.4-.481-4.02-1.547-5.092a4.568,4.568,0,0,0-3.375-1.268,4.989,4.989,0,0,0-1.631.271v-4.911Z" transform="translate(-281.925 -152.483)"/><path class="b" d="M195.524,168.089l-7.762,13.528h8.581l-.011,4.271,3.747.01.011-4.281h1.879V177.87H200.1l.025-9.781Zm.829,9.781h-2.121l2.13-3.712Z" transform="translate(-164.309 -148.965)"/><path class="b" d="M109.494,165.36a5.59,5.59,0,0,0-5.476,4.5l-.361,1.838,3.677.722.361-1.838a1.834,1.834,0,0,1,3.63.259,5.917,5.917,0,0,1-1.271,2.73,69.7,69.7,0,0,1-5.005,6.6l-.514.54-.012,3.1,11.16.034.011-3.747-5.748-.018c.811-1.06,1.862-2.486,3.178-4.366a9.287,9.287,0,0,0,1.951-4.78A5.587,5.587,0,0,0,109.494,165.36Z" transform="translate(-90.71 -146.577)"/><path class="b" d="M51.586,23.19a28.028,28.028,0,0,0-37.435-1.98A28.135,28.135,0,0,0,4.43,36.81l3.655.825A24.291,24.291,0,1,1,7.927,47.6l.93.762,2.375-2.9L6.391,41.494H4.841L0,45.461l2.375,2.9,1.65-1.352A28.029,28.029,0,0,0,51.586,62.825a28.026,28.026,0,0,0,0-39.635Z" transform="translate(0 -14.981)"/></g></g></svg>