<svg xmlns="http://www.w3.org/2000/svg" width="84" height="84" viewBox="0 0 84 84"><defs><style>.a{fill:#2d933f;}.b,.c{fill:#fff;}.c{fill-rule:evenodd;}</style></defs><g transform="translate(-226 -1010)"><circle class="a" cx="42" cy="42" r="42" transform="translate(226 1010)"/><g transform="translate(250 1030)"><path class="b" d="M2.22,39.918H4.438v2.217a2.218,2.218,0,0,0,2.218,2.218H33.268a2.218,2.218,0,0,0,2.217-2.218V6.653a2.218,2.218,0,0,0-2.217-2.218H31.05V2.218A2.218,2.218,0,0,0,28.832,0H8.134c-.016,0-.03.008-.045.009A.751.751,0,0,0,7.9.047a.7.7,0,0,0-.067.024.717.717,0,0,0-.217.148L.219,7.612a.739.739,0,0,0-.148.217c-.01.023-.016.046-.024.07a.7.7,0,0,0-.038.19c0,.016-.009.03-.009.047V37.7A2.218,2.218,0,0,0,2.22,39.918Zm31.048-34a.739.739,0,0,1,.739.739V42.136a.739.739,0,0,1-.739.739H6.656a.739.739,0,0,1-.739-.739V39.918H28.832A2.218,2.218,0,0,0,31.05,37.7V5.914Zm-3.7-3.7V37.7a.739.739,0,0,1-.739.739H2.22a.739.739,0,0,1-.739-.739V8.87H6.656A2.218,2.218,0,0,0,8.873,6.653V1.478H28.832a.739.739,0,0,1,.739.739ZM7.395,2.524V6.653a.739.739,0,0,1-.739.739H2.526Zm0,0" transform="translate(0.001 0)"/><g transform="translate(4.438 12.567)"><path class="c" d="M51.973,145.066a.739.739,0,0,0,0,1.478h20.7a.739.739,0,1,0,0-1.478Zm0,0" transform="translate(-51.234 -145.066)"/><path class="c" d="M72.671,315.734h-20.7a.739.739,0,0,0,0,1.478h20.7a.739.739,0,1,0,0-1.478Zm0,0" transform="translate(-51.234 -300.949)"/><path class="c" d="M251.935,187.734h-3.7a.739.739,0,1,0,0,1.478h3.7a.739.739,0,1,0,0-1.478Zm0,0" transform="translate(-230.498 -184.038)"/><path class="c" d="M66.018,188.474a.739.739,0,0,0-.739-.739H51.973a.739.739,0,0,0,0,1.478H65.279A.739.739,0,0,0,66.018,188.474Zm0,0" transform="translate(-51.234 -184.038)"/><path class="c" d="M146.58,358.4h-.739a.739.739,0,0,0,0,1.478h.739a.739.739,0,0,0,0-1.478Zm0,0" transform="translate(-136.97 -339.917)"/><path class="c" d="M56.409,358.4H51.974a.739.739,0,0,0,0,1.478h4.436a.739.739,0,0,0,0-1.478Zm0,0" transform="translate(-51.235 -339.917)"/><path class="c" d="M51.973,231.877h3.7a.739.739,0,1,0,0-1.478h-3.7a.739.739,0,0,0,0,1.478Zm0,0" transform="translate(-51.234 -223.006)"/><path class="c" d="M150.611,230.4H137.305a.739.739,0,1,0,0,1.478h13.306a.739.739,0,1,0,0-1.478Zm0,0" transform="translate(-129.174 -223.006)"/><path class="c" d="M51.973,274.545h2.218a.739.739,0,1,0,0-1.478H51.973a.739.739,0,0,0,0,1.478Zm0,0" transform="translate(-51.234 -261.978)"/><path class="c" d="M120.239,274.545h8.871a.739.739,0,1,0,0-1.478h-8.871a.739.739,0,1,0,0,1.478Zm0,0" transform="translate(-113.586 -261.978)"/><path class="c" d="M267.523,273.066h-2.217a.739.739,0,1,0,0,1.478h2.217a.739.739,0,1,0,0-1.478Zm0,0" transform="translate(-246.085 -261.978)"/></g></g></g></svg>