<svg xmlns="http://www.w3.org/2000/svg" width="28.316" height="22" viewBox="0 0 28.316 22"><defs><style>.a{fill:#6eb54d;}</style></defs><g transform="translate(28.316 61.159) rotate(180)"><path class="a" d="M5.833,47.882a6.237,6.237,0,0,1,5.182-4.54.56.56,0,0,0,.395-.148.405.405,0,0,0,.247-.247,2.356,2.356,0,0,0-.888-3.356c-1.431-1.036-3.7,0-4.837.938C3.069,42.9.157,46.994.305,50.893a16.321,16.321,0,0,0,.345,7.748,3.651,3.651,0,0,0,3.405,2.32c1.481.1,4.54.543,5.873-.345s1.431-2.616,1.579-4.1c.148-1.629.592-4.689-.79-5.972C9.337,49.314,5.388,50.646,5.833,47.882Z" transform="translate(0)"/><path class="a" d="M207.793,47.882a6.237,6.237,0,0,1,5.182-4.54.56.56,0,0,0,.395-.148.405.405,0,0,0,.247-.247,2.356,2.356,0,0,0-.888-3.356c-1.431-1.036-3.7,0-4.837.938-2.862,2.369-5.774,6.465-5.626,10.364a16.322,16.322,0,0,0,.345,7.748,3.651,3.651,0,0,0,3.405,2.32c1.481.1,4.54.543,5.873-.345s1.431-2.616,1.579-4.1c.148-1.629.592-4.689-.79-5.972C211.3,49.314,207.3,50.646,207.793,47.882Z" transform="translate(-185.674)"/></g></svg>