<svg xmlns="http://www.w3.org/2000/svg" width="34" height="34" viewBox="0 0 34 34"><defs><style>.a{fill:#2d933f;}.b{fill:#fff;}</style></defs><g transform="translate(-269 -22)"><circle class="a" cx="17" cy="17" r="17" transform="translate(269 22)"/><path class="b" d="M6.114,17.736l-5.85-5.85a.9.9,0,0,1,0-1.273L1.536,9.341a.9.9,0,0,1,1.273,0L6.75,13.282l8.441-8.441a.9.9,0,0,1,1.273,0l1.273,1.273a.9.9,0,0,1,0,1.273L7.386,17.736A.9.9,0,0,1,6.114,17.736Z" transform="translate(277 27.423)"/></g></svg>