<svg xmlns="http://www.w3.org/2000/svg" width="63.972" height="10.904" viewBox="0 0 63.972 10.904"><defs><style>.a{fill:#e0a420;}</style></defs><g transform="translate(0)"><path class="a" d="M6.526.378,5.136,3.2l-3.111.454a.682.682,0,0,0-.377,1.163L3.9,7.007l-.532,3.1a.681.681,0,0,0,.988.718L7.137,9.36l2.783,1.463a.682.682,0,0,0,.988-.718l-.532-3.1,2.251-2.193a.682.682,0,0,0-.377-1.163L9.139,3.2,7.749.378A.682.682,0,0,0,6.526.378Z" transform="translate(-1.441 0.001)"/><path class="a" d="M6.526.378,5.136,3.2l-3.111.454a.682.682,0,0,0-.377,1.163L3.9,7.007l-.532,3.1a.681.681,0,0,0,.988.718L7.137,9.36l2.783,1.463a.682.682,0,0,0,.988-.718l-.532-3.1,2.251-2.193a.682.682,0,0,0-.377-1.163L9.139,3.2,7.749.378A.682.682,0,0,0,6.526.378Z" transform="translate(11.704 0.001)"/><path class="a" d="M6.526.378,5.136,3.2l-3.111.454a.682.682,0,0,0-.377,1.163L3.9,7.007l-.532,3.1a.681.681,0,0,0,.988.718L7.137,9.36l2.783,1.463a.682.682,0,0,0,.988-.718l-.532-3.1,2.251-2.193a.682.682,0,0,0-.377-1.163L9.139,3.2,7.749.378A.682.682,0,0,0,6.526.378Z" transform="translate(24.848 0.001)"/><path class="a" d="M6.526.378,5.136,3.2l-3.111.454a.682.682,0,0,0-.377,1.163L3.9,7.007l-.532,3.1a.681.681,0,0,0,.988.718L7.137,9.36l2.783,1.463a.682.682,0,0,0,.988-.718l-.532-3.1,2.251-2.193a.682.682,0,0,0-.377-1.163L9.139,3.2,7.749.378A.682.682,0,0,0,6.526.378Z" transform="translate(37.993 0.001)"/><path class="a" d="M6.526.378,5.136,3.2l-3.111.454a.682.682,0,0,0-.377,1.163L3.9,7.007l-.532,3.1a.681.681,0,0,0,.988.718L7.137,9.36l2.783,1.463a.682.682,0,0,0,.988-.718l-.532-3.1,2.251-2.193a.682.682,0,0,0-.377-1.163L9.139,3.2,7.749.378A.682.682,0,0,0,6.526.378Z" transform="translate(51.138 0.001)"/></g></svg>