<svg xmlns="http://www.w3.org/2000/svg" width="84" height="84" viewBox="0 0 84 84"><defs><style>.a{fill:#2d933f;}.b{fill:#fff;}</style></defs><g transform="translate(0.403 0.289)"><path class="a" d="M42,0A42,42,0,1,1,0,42,42,42,0,0,1,42,0Z" transform="translate(-0.403 -0.289)"/><g transform="translate(16.597 11.711)"><path class="b" d="M29.256,49.262A12.006,12.006,0,1,0,17.25,37.256,12.006,12.006,0,0,0,29.256,49.262ZM23.78,44.346l.767-2.429a.61.61,0,0,0-.434-.776l-1.328-.332-1.058-2.587V36.646h3.36l2.079.693.709,1.772a.611.611,0,0,0,.447.372l1.544.309v1.564l-2.1,1.052a.61.61,0,0,0-.337.546v1.4l-2.414,2.812c-.257-.111-.507-.234-.754-.364Zm13.673-.1-.667-.413V42.14a.61.61,0,0,0-.338-.546l-1.211-.605.723-3.613a.61.61,0,0,0-.167-.551L34.571,35.6a.61.61,0,0,0-.58-.161l-1.366.341-2-1.331-.3-1.828,1.588-1.27h2.024l3.093,2.32a.61.61,0,0,0,.607.073l1.562-.67A10.749,10.749,0,0,1,37.453,44.247Zm1.2-12.265-1.175.5-2.973-2.23a.612.612,0,0,0-.366-.122H31.7a.611.611,0,0,0-.382.134L29.281,31.9a.61.61,0,0,0-.221.577l.407,2.442a.61.61,0,0,0,.263.407l2.442,1.628a.612.612,0,0,0,.487.084l1.292-.323.746.746-.75,3.749a.61.61,0,0,0,.326.666l1.29.645v1.658a.61.61,0,0,0,.289.519l.731.452A10.7,10.7,0,0,1,26.244,47.6L28.5,44.979a.608.608,0,0,0,.147-.4V43.331l2.1-1.052a.61.61,0,0,0,.337-.546V39.291a.61.61,0,0,0-.491-.6l-1.711-.342-.691-1.728a.61.61,0,0,0-.374-.353l-2.442-.814a.614.614,0,0,0-.193-.032H23.415l3.7-2.115a.61.61,0,0,0,.308-.53V30.664l2.17-1.447a.61.61,0,0,0-.066-1.054l-2.779-1.386a10.708,10.708,0,0,1,11.905,5.205Zm-13.57-4.671,2.957,1.474-1.565,1.044a.61.61,0,0,0-.272.508v2.088L21.14,35.319l-2.13-1.41a10.835,10.835,0,0,1,6.075-6.6Zm-6.4,7.843,1.826,1.208v1.978a.615.615,0,0,0,.045.231l1.221,2.984a.61.61,0,0,0,.417.361l1,.25-.619,1.959a.611.611,0,0,0-.017.3l.287,1.477a10.734,10.734,0,0,1-4.159-10.749Z" transform="translate(-3.413 -4.901)"/><path class="b" d="M23.86,17.75H36.884a.61.61,0,0,0,.61-.61V14.7a4.66,4.66,0,0,0-.189-1.3l-.67-7.42a6.289,6.289,0,0,0-12.527,0l-.67,7.42a4.66,4.66,0,0,0-.189,1.3V17.14A.61.61,0,0,0,23.86,17.75Zm12.413-1.221h-11.8V14.7a3.461,3.461,0,0,1,3.418-3.455,4.213,4.213,0,0,0,4.967,0A3.461,3.461,0,0,1,36.273,14.7Zm-2.849-8.75a3.052,3.052,0,1,1-6.1,0v-.61h1.232A3.534,3.534,0,0,0,31.186,6a3.527,3.527,0,0,0,2.238,1.143ZM30.372,1.471A5.043,5.043,0,0,1,35.42,6.083l.459,5.086a4.666,4.666,0,0,0-1.958-1.014,4.248,4.248,0,0,0,.724-2.376V6.558a.61.61,0,0,0-.61-.61H33.82a2.321,2.321,0,0,1-2.088-1.29.636.636,0,0,0-1.092,0,2.321,2.321,0,0,1-2.088,1.29H26.709a.61.61,0,0,0-.61.61V7.779a4.248,4.248,0,0,0,.724,2.376,4.666,4.666,0,0,0-1.958,1.014l.459-5.086a5.043,5.043,0,0,1,5.048-4.612Z" transform="translate(-4.529 -0.25)"/><path class="b" d="M10.921,51.341a4.248,4.248,0,0,0,.724-2.376V46.523A4.278,4.278,0,0,0,7.372,42.25H3.3a.61.61,0,0,0-.592.463l-.32,1.281A4.858,4.858,0,0,0,3.1,47.928v1.038a4.248,4.248,0,0,0,.724,2.376A4.685,4.685,0,0,0,.25,55.884v2.442a.61.61,0,0,0,.61.61H13.884a.61.61,0,0,0,.61-.61V55.884a4.685,4.685,0,0,0-3.573-4.543Zm-6.6-2.376v-.61H5.552A3.534,3.534,0,0,0,8.186,47.19a3.515,3.515,0,0,0,2.238,1.123v.652a3.052,3.052,0,0,1-6.1,0ZM3.574,44.29l.2-.819H7.372a3.056,3.056,0,0,1,3.052,3.052V47.1a2.32,2.32,0,0,1-1.692-1.257.636.636,0,0,0-1.092,0,2.321,2.321,0,0,1-2.088,1.29H4.029a3.647,3.647,0,0,1-.455-2.844Zm9.7,13.425H1.471V55.884a3.461,3.461,0,0,1,3.418-3.455,4.213,4.213,0,0,0,4.967,0,3.461,3.461,0,0,1,3.418,3.455Z" transform="translate(-0.25 -8.063)"/><path class="b" d="M56.921,51.341a4.248,4.248,0,0,0,.724-2.376V46.523a4.273,4.273,0,0,0-8.547,0v2.442a4.248,4.248,0,0,0,.724,2.376,4.685,4.685,0,0,0-3.573,4.543v2.442a.61.61,0,0,0,.61.61H59.884a.61.61,0,0,0,.61-.61V55.884a4.685,4.685,0,0,0-3.573-4.543Zm-6.6-2.376v-.61h1.232a3.534,3.534,0,0,0,2.634-1.165,3.515,3.515,0,0,0,2.238,1.123v.652a3.052,3.052,0,0,1-6.1,0Zm0-2.442a3.052,3.052,0,0,1,6.1,0V47.1a2.32,2.32,0,0,1-1.692-1.257.636.636,0,0,0-1.092,0,2.321,2.321,0,0,1-2.088,1.29H50.32Zm8.954,11.192h-11.8V55.884a3.461,3.461,0,0,1,3.418-3.455,4.213,4.213,0,0,0,4.967,0,3.461,3.461,0,0,1,3.418,3.455Z" transform="translate(-8.808 -8.063)"/><path class="b" d="M49.763,27.067a.814.814,0,1,0-1.141-.15A.814.814,0,0,0,49.763,27.067Z" transform="translate(-9.218 -4.967)"/><path class="b" d="M52.451,32.147a.814.814,0,1,0-1.064-.441A.814.814,0,0,0,52.451,32.147Z" transform="translate(-9.752 -5.892)"/><path class="b" d="M52.818,37.049a.814.814,0,1,0,.7-.913A.814.814,0,0,0,52.818,37.049Z" transform="translate(-10.028 -6.924)"/><path class="b" d="M9.9,37.75a.814.814,0,1,0-.7-.913A.814.814,0,0,0,9.9,37.75Z" transform="translate(-1.913 -6.924)"/><path class="b" d="M11.177,32.147a.814.814,0,1,0-.441-1.064A.814.814,0,0,0,11.177,32.147Z" transform="translate(-2.189 -5.892)"/><path class="b" d="M15.006,26.917a.814.814,0,1,0-1.141.15A.814.814,0,0,0,15.006,26.917Z" transform="translate(-2.724 -4.967)"/><path class="b" d="M18.917,23.006a.814.814,0,1,0-1.141-.15A.814.814,0,0,0,18.917,23.006Z" transform="translate(-3.479 -4.212)"/><path class="b" d="M45.852,22.856a.814.814,0,1,0-1.141.15A.814.814,0,0,0,45.852,22.856Z" transform="translate(-8.462 -4.212)"/><path class="b" d="M21.221,58.162a.814.814,0,1,0,.3,1.112A.814.814,0,0,0,21.221,58.162Z" transform="translate(-3.924 -11.003)"/><path class="b" d="M42.407,58.162a.814.814,0,1,0,1.112.3A.814.814,0,0,0,42.407,58.162Z" transform="translate(-8.017 -11.003)"/><path class="b" d="M37.3,60.278a.814.814,0,1,0,1,.576A.814.814,0,0,0,37.3,60.278Z" transform="translate(-7.03 -11.412)"/><path class="b" d="M26.331,60.278a.814.814,0,1,0,.576,1A.814.814,0,0,0,26.331,60.278Z" transform="translate(-4.911 -11.412)"/><circle class="b" cx="0.814" cy="0.814" r="0.814" transform="translate(25.029 49.449)"/></g></g></svg>