<svg xmlns="http://www.w3.org/2000/svg" width="100" height="100" viewBox="0 0 100 100"><defs><style>.a{fill:#2d933f;}.b{fill:#fff;stroke:#2d933f;}</style></defs><g transform="translate(-225.986 -1010.139)"><circle class="a" cx="50" cy="50" r="50" transform="translate(225.986 1010.139)"/><g transform="translate(252.179 1036.133)"><g transform="translate(0 0.006)"><path class="b" d="M45.538,25.853v-4.5a1.417,1.417,0,0,0-1.417-1.417,42.751,42.751,0,0,0-8.236.752,12.8,12.8,0,0,0-5.32-3.081,9.92,9.92,0,1,0-12.757,0,12.8,12.8,0,0,0-5.32,3.081,42.758,42.758,0,0,0-8.236-.752,1.417,1.417,0,0,0-1.417,1.417v4.5A4.258,4.258,0,0,0,0,29.861v2.834A4.258,4.258,0,0,0,2.834,36.7v4.5a1.417,1.417,0,0,0,1.417,1.417A32.979,32.979,0,0,1,23.4,48.14a1.422,1.422,0,0,0,1.572,0,32.979,32.979,0,0,1,19.149-5.525A1.417,1.417,0,0,0,45.538,41.2V36.7a4.258,4.258,0,0,0,2.834-4.008V29.861A4.259,4.259,0,0,0,45.538,25.853ZM17.1,10.021a7.086,7.086,0,1,1,7.086,7.086A7.142,7.142,0,0,1,17.1,10.021ZM4.251,34.112a1.419,1.419,0,0,1-1.417-1.417V29.861a1.417,1.417,0,1,1,2.834,0v2.834A1.419,1.419,0,0,1,4.251,34.112ZM22.769,44.418A35.458,35.458,0,0,0,5.668,39.8V36.7A4.258,4.258,0,0,0,8.5,32.695V29.861a4.258,4.258,0,0,0-2.834-4.008V22.795a32.032,32.032,0,0,1,17.1,5Zm1.417-19.079a33.68,33.68,0,0,0-8.245-3.79,9.941,9.941,0,0,1,5.41-1.608H27.02a9.941,9.941,0,0,1,5.41,1.608A33.678,33.678,0,0,0,24.186,25.339ZM42.7,39.8a35.46,35.46,0,0,0-17.1,4.617V27.8a32.029,32.029,0,0,1,17.1-5v3.058a4.258,4.258,0,0,0-2.834,4.008v2.834A4.258,4.258,0,0,0,42.7,36.7Zm2.834-7.106a1.417,1.417,0,1,1-2.834,0V29.861a1.417,1.417,0,1,1,2.834,0Z" transform="translate(0 -0.006)"/></g></g></g></svg>