<svg xmlns="http://www.w3.org/2000/svg" width="100" height="100" viewBox="0 0 100 100"><defs><style>.a{fill:#2d933f;}.b{fill:#fff;stroke:#fff;stroke-width:0.3px;}</style></defs><g transform="translate(-225.986 -1010.139)"><circle class="a" cx="50" cy="50" r="50" transform="translate(225.986 1010.139)"/><g transform="translate(246.985 1021.668)"><path class="b" d="M29.143,42.861a.911.911,0,0,1-.387-.087L.524,29.492a.911.911,0,0,1,0-1.648L28.756,14.557a.911.911,0,0,1,.774,0L57.761,27.844a.911.911,0,0,1,0,1.648L29.53,42.775A.911.911,0,0,1,29.143,42.861ZM3.051,28.668,29.143,40.962,55.234,28.668,29.143,16.387Z" transform="translate(0 0)"/><path class="b" d="M22.911,66.384A.911.911,0,0,1,22,65.473V55.911a.911.911,0,1,1,1.821,0v9.562A.911.911,0,0,1,22.911,66.384Z" transform="translate(-11.982 -22.075)"/><path class="b" d="M102.911,66.384a.911.911,0,0,1-.911-.911V55.911a.911.911,0,1,1,1.821,0v9.562A.911.911,0,0,1,102.911,66.384Z" transform="translate(-55.554 -22.075)"/><path class="b" d="M41.125,87.17C30.825,87.17,22,81.528,22,76.911a.911.911,0,1,1,1.821,0c0,2.887,7.286,8.438,17.3,8.438s17.3-5.551,17.3-8.438a.911.911,0,1,1,1.821,0C60.249,81.528,51.424,87.17,41.125,87.17Z" transform="translate(-11.982 -33.512)"/><path class="b" d="M76.541,69.4a.911.911,0,0,1-.911-.911V51.291l-13.155-6.58a.911.911,0,1,1,.811-1.63l13.66,6.83a.911.911,0,0,1,.505.815V68.484A.911.911,0,0,1,76.541,69.4Z" transform="translate(-33.738 -15.524)"/><path class="b" d="M90.732,103.464a2.732,2.732,0,1,1,2.732-2.732A2.732,2.732,0,0,1,90.732,103.464Zm0-3.643a.911.911,0,1,0,.911.911A.911.911,0,0,0,90.732,99.821Z" transform="translate(-47.929 -45.495)"/><path class="b" d="M92.639,113.233H89.907a.911.911,0,0,1-.911-.988l.455-5.464a.911.911,0,1,1,1.821.068.911.911,0,1,1,1.821-.068l.455,5.464a.911.911,0,0,1-.911.988Zm-1.744-1.821h.756l-.378-4.476a.345.345,0,0,1,0-.068.345.345,0,0,1,0,.068Z" transform="translate(-48.47 -49.799)"/></g></g></svg>