<svg xmlns="http://www.w3.org/2000/svg" width="84" height="84" viewBox="0 0 84 84"><defs><style>.a{fill:#2d933f;}.b{fill:#fff;}</style></defs><g transform="translate(-779 -1010)"><path class="a" d="M42,0A42,42,0,1,1,0,42,42,42,0,0,1,42,0Z" transform="translate(779 1010)"/><g transform="translate(796 1026)"><g transform="translate(0)"><path class="b" d="M56.157,94.96H49.789l-.047-.023a17.856,17.856,0,0,0-6.6-2.663,18.818,18.818,0,0,0-32.227-17.75,1.019,1.019,0,0,0,1.537,1.337A16.784,16.784,0,0,1,41.029,92.206a16.55,16.55,0,0,0-5.286,1.459H28.681a4.567,4.567,0,0,0-3.8,7.1h-.255l-12.163-3.49a4.463,4.463,0,0,0-.608-.129A16.81,16.81,0,0,1,8.663,83.581a1.019,1.019,0,1,0-2-.4A18.849,18.849,0,0,0,9.558,97.446a4.337,4.337,0,0,0-2.433,2.66,4.393,4.393,0,0,0,2.713,5.464l14.8,5.129a18.263,18.263,0,0,0,8.446.829l13.358-1.854h2.09v2.583a1.019,1.019,0,0,0,1.019,1.019h6.6a1.019,1.019,0,0,0,1.019-1.019V95.979a1.019,1.019,0,0,0-1.019-1.019Zm-9.781,12.676a1.023,1.023,0,0,0-.14.01l-13.427,1.863a16.218,16.218,0,0,1-7.5-.736L10.5,103.644a2.315,2.315,0,0,1,1.4-4.413l12.3,3.53a1.021,1.021,0,0,0,.281.04H35.954a1.021,1.021,0,0,0,0-2.042H28.681a2.528,2.528,0,1,1,0-5.055h7.273a1.018,1.018,0,0,0,.407-.085,13.031,13.031,0,0,1,5.864-1.38,14.391,14.391,0,0,1,6.311,2.353v11.045Zm8.763,3.6H50.574V97h4.564Z" transform="translate(-6.303 -61.119)"/><path class="b" d="M182.019,4.834a1.019,1.019,0,0,0,1.019-1.019v-2.8a1.019,1.019,0,1,0-2.037,0v2.8A1.019,1.019,0,0,0,182.019,4.834Z" transform="translate(-163.204)"/><path class="b" d="M307.467,38.031a1.019,1.019,0,0,0,1.434-.138l1.978-2.4a1.019,1.019,0,1,0-1.572-1.3l-1.978,2.4A1.019,1.019,0,0,0,307.467,38.031Z" transform="translate(-276.455 -30.382)"/><path class="b" d="M46.074,37.893a1.019,1.019,0,1,0,1.572-1.3l-1.978-2.4a1.019,1.019,0,0,0-1.572,1.3Z" transform="translate(-40.037 -30.382)"/><path class="b" d="M198.108,167.939l-10.683,10.683a1.019,1.019,0,0,0,0,1.441,1.029,1.029,0,0,0,1.441,0l10.683-10.683a1.019,1.019,0,0,0-1.441-1.441Z" transform="translate(-168.707 -150.563)"/><path class="b" d="M185.225,163.917a2.923,2.923,0,1,0,2.923,2.923A2.926,2.926,0,0,0,185.225,163.917Zm0,3.808a.885.885,0,1,1,.885-.885A.886.886,0,0,1,185.225,167.725Z" transform="translate(-164.373 -147.219)"/><path class="b" d="M261.748,240.44a2.923,2.923,0,1,0,2.923,2.923A2.926,2.926,0,0,0,261.748,240.44Zm0,3.808a.885.885,0,1,1,.885-.885A.886.886,0,0,1,261.748,244.248Z" transform="translate(-233.101 -215.947)"/><path class="b" d="M75.209,175.3a3.776,3.776,0,0,0,3.772-3.772v-5.75a3.776,3.776,0,0,0-3.772-3.772H73.839a3.776,3.776,0,0,0-3.772,3.772v5.75a3.776,3.776,0,0,0,3.772,3.772Zm-3.1-3.772v-5.75a1.737,1.737,0,0,1,1.735-1.735h1.369a1.737,1.737,0,0,1,1.735,1.735v5.75a1.737,1.737,0,0,1-1.735,1.735H73.839A1.737,1.737,0,0,1,72.1,171.527Z" transform="translate(-63.571 -145.502)"/><path class="b" d="M24.55,166.572a1.018,1.018,0,1,0,.551-1.33A1.027,1.027,0,0,0,24.55,166.572Z" transform="translate(-22.623 -148.341)"/></g></g></g></svg>