<svg xmlns="http://www.w3.org/2000/svg" width="100" height="100" viewBox="0 0 100 100"><defs><style>.a{fill:#2d933f;}.b{fill:#fff;}</style></defs><g transform="translate(-225.986 -1010.139)"><circle class="a" cx="50" cy="50" r="50" transform="translate(225.986 1010.139)"/><g transform="translate(253.373 1037.525)"><path class="b" d="M37.786,28.757V3.023A3.023,3.023,0,0,0,34.763,0H3.023A3.023,3.023,0,0,0,0,3.023V41.565a3.023,3.023,0,0,0,3.023,3.023H33.587a8.308,8.308,0,1,0,4.2-15.831ZM3.023,1.511h31.74a1.511,1.511,0,0,1,1.511,1.511V6.046H1.511V3.023A1.511,1.511,0,0,1,3.023,1.511Zm0,41.565a1.511,1.511,0,0,1-1.511-1.511V7.557H36.275v21.2a8.3,8.3,0,0,0-4.932,14.319Zm34.007.756a6.8,6.8,0,1,1,6.8-6.8A6.8,6.8,0,0,1,37.03,43.832Z"/><path class="b" d="M50.2,44.3l-4.011,5.348-.9-.9a.756.756,0,0,0-1.069,1.069l1.511,1.511a.756.756,0,0,0,.534.222h.054a.756.756,0,0,0,.551-.3l4.534-6.046A.756.756,0,0,0,50.2,44.3Z" transform="translate(-10.751 -10.748)"/><path class="b" d="M34.756,5.511h7.557a.756.756,0,1,0,0-1.511H34.756a.756.756,0,0,0,0,1.511Z" transform="translate(-8.305 -0.977)"/><path class="b" d="M17,28.756c0,.417.487.756,1.089.756H43.132c.6,0,1.089-.338,1.089-.756S43.733,28,43.132,28H18.089C17.487,28,17,28.338,17,28.756Z" transform="translate(-12.48 -6.84)"/><path class="b" d="M36.267,33.511a.756.756,0,1,0,0-1.511H34.756a.756.756,0,0,0,0,1.511Z" transform="translate(-15.863 -7.817)"/><path class="b" d="M17.756,33.511H27.58a.756.756,0,1,0,0-1.511H17.756a.756.756,0,1,0,0,1.511Z" transform="translate(-12.48 -7.817)"/><path class="b" d="M42.362,38H18.1c-.609,0-1.1.338-1.1.756s.494.756,1.1.756h24.26c.609,0,1.1-.338,1.1-.756S42.971,38,42.362,38Z" transform="translate(-12.48 -9.283)"/><path class="b" d="M34.267,42H32.756a.756.756,0,0,0,0,1.511h1.511a.756.756,0,1,0,0-1.511Z" transform="translate(-15.374 -10.26)"/><path class="b" d="M17.756,42a.756.756,0,1,0,0,1.511h8.313a.756.756,0,1,0,0-1.511Z" transform="translate(-12.48 -10.26)"/><path class="b" d="M29.847,48H17.756a.756.756,0,1,0,0,1.511H29.847a.756.756,0,0,0,0-1.511Z" transform="translate(-12.48 -11.725)"/><path class="b" d="M31.267,52H29.756a.756.756,0,1,0,0,1.511h1.511a.756.756,0,0,0,0-1.511Z" transform="translate(-14.641 -12.702)"/><path class="b" d="M23.8,52H17.756a.756.756,0,1,0,0,1.511H23.8A.756.756,0,0,0,23.8,52Z" transform="translate(-12.48 -12.702)"/></g></g></svg>