<svg xmlns="http://www.w3.org/2000/svg" width="23.975" height="23.975" viewBox="0 0 23.975 23.975"><defs><style>.a,.b{fill:#2d933f;}.b{fill-rule:evenodd;}</style></defs><g transform="translate(0)"><path class="a" d="M677.316,288.969a11.989,11.989,0,1,1-8.476,3.511,11.944,11.944,0,0,1,8.476-3.511Zm7.812,4.175a11.041,11.041,0,1,0,3.239,7.812,10.989,10.989,0,0,0-3.239-7.812Z" transform="translate(-665.328 -288.969)"/><path class="b" d="M692.5,321.663v5.3h2.522v-7.215H692.5Zm10.76.3c-.166-1.367-.79-2.217-2.635-2.217a2.251,2.251,0,0,0-2.117.976h-.033v-.976h-2.011v7.215h2.1v-3.578c0-.943.186-1.852,1.341-1.852s1.247,1.075,1.247,1.918v3.511h2.164V323a8.454,8.454,0,0,0-.06-1.036Zm-9.5-5.821a1.261,1.261,0,1,0,1.261,1.261,1.261,1.261,0,0,0-1.261-1.261Z" transform="translate(-685.922 -309.562)"/></g></svg>