<svg xmlns="http://www.w3.org/2000/svg" width="197.124" height="64.807" viewBox="0 0 197.124 64.807"><defs><style>.a,.b{fill:#2d933f;}.a{opacity:0.74;}.c{fill:#fff;}</style></defs><g transform="translate(-64.528 -213.595)"><g transform="translate(0 0.001)"><path class="a" d="M2.677,0H186.346a2.677,2.677,0,0,1,2.677,2.677V54.03a2.676,2.676,0,0,1-2.676,2.676H2.676A2.676,2.676,0,0,1,0,54.03V2.677A2.677,2.677,0,0,1,2.677,0Z" transform="translate(72.629 221.694)"/><path class="b" d="M2.677,0H186.346a2.676,2.676,0,0,1,2.676,2.676V54.03a2.676,2.676,0,0,1-2.676,2.676H2.677A2.677,2.677,0,0,1,0,54.03V2.677A2.677,2.677,0,0,1,2.677,0Z" transform="translate(64.528 213.594)"/><rect class="c" width="113.413" height="5.401" rx="0.573" transform="translate(126.635 232.495)"/><rect class="c" width="113.413" height="5.401" rx="0.573" transform="translate(126.635 248.698)"/></g><circle class="c" cx="16.202" cy="16.202" r="16.202" transform="translate(74.019 240.598) rotate(-45)"/></g></svg>