<svg xmlns="http://www.w3.org/2000/svg" width="19.595" height="15.224" viewBox="0 0 19.595 15.224"><defs><style>.a{fill:rgba(0,0,0,0.54);}</style></defs><path class="a" d="M4.036,45.2a4.316,4.316,0,0,1,3.586-3.142.388.388,0,0,0,.273-.1.281.281,0,0,0,.171-.171,1.63,1.63,0,0,0-.615-2.322c-.99-.717-2.561,0-3.347.649-1.981,1.639-4,4.474-3.893,7.172A11.294,11.294,0,0,0,.45,52.641a2.527,2.527,0,0,0,2.357,1.605c1.025.068,3.142.376,4.064-.239s.99-1.81,1.093-2.835c.1-1.127.41-3.245-.546-4.133C6.461,46.186,3.729,47.108,4.036,45.2Z" transform="translate(0 -39.159)"/><path class="a" d="M206,45.2a4.316,4.316,0,0,1,3.586-3.142.388.388,0,0,0,.273-.1.281.281,0,0,0,.171-.171,1.63,1.63,0,0,0-.615-2.322c-.99-.717-2.561,0-3.347.649-1.981,1.639-4,4.474-3.893,7.172a11.3,11.3,0,0,0,.239,5.362,2.527,2.527,0,0,0,2.357,1.605c1.025.068,3.142.376,4.064-.239s.99-1.81,1.093-2.835c.1-1.127.41-3.245-.546-4.133C208.421,46.186,205.655,47.108,206,45.2Z" transform="translate(-190.69 -39.159)"/></svg>