<svg xmlns="http://www.w3.org/2000/svg" width="19.595" height="15.224" viewBox="0 0 19.595 15.224"><defs><style>.a{fill:rgba(0,0,0,0.54);}</style></defs><g transform="translate(19.595 15.224) rotate(180)"><path class="a" d="M4.036,6.036A4.316,4.316,0,0,1,7.622,2.894a.388.388,0,0,0,.273-.1.281.281,0,0,0,.171-.171A1.63,1.63,0,0,0,7.451.3C6.461-.418,4.89.3,4.1.948,2.124,2.587.109,5.422.211,8.12A11.294,11.294,0,0,0,.45,13.482a2.527,2.527,0,0,0,2.357,1.605c1.025.068,3.142.376,4.064-.239s.99-1.81,1.093-2.835c.1-1.127.41-3.245-.546-4.133C6.461,7.027,3.729,7.949,4.036,6.036Z" transform="translate(0)"/><path class="a" d="M4.036,6.036A4.316,4.316,0,0,1,7.622,2.894a.388.388,0,0,0,.273-.1.281.281,0,0,0,.171-.171A1.63,1.63,0,0,0,7.451.3C6.461-.418,4.89.3,4.1.948,2.124,2.587.109,5.422.211,8.12A11.3,11.3,0,0,0,.45,13.482a2.527,2.527,0,0,0,2.357,1.605c1.025.068,3.142.376,4.064-.239s.99-1.81,1.093-2.835c.1-1.127.41-3.245-.546-4.133C6.461,7.027,3.695,7.949,4.036,6.036Z" transform="translate(11.27)"/></g></svg>