<svg xmlns="http://www.w3.org/2000/svg" width="169.65" height="171.312" viewBox="0 0 169.65 171.312"><defs><style>.a{fill:#fff;}.a,.b,.c,.d,.e,.f{fill-rule:evenodd;}.b{fill:#f0b97d;}.c{fill:#2d933f;}.d{fill:#257e34;}.e{fill:#fed198;}.f{fill:#3d380c;}</style></defs><g transform="translate(-421.254 -419.201)"><path class="a" d="M590.9,503.973A84.825,84.825,0,1,1,506.08,419.2,84.846,84.846,0,0,1,590.9,503.973Z"/><g transform="translate(204.223 398.364)"><path class="b" d="M316.037,129.69H288.123c4.293,12.79.28,18.673.28,18.673a46.275,46.275,0,0,0,27.261,0s-4.016-5.883.373-18.673Z"/><path class="c" d="M281.681,149.389h0c-.653.279-1.308.561-1.961.841h0a4.383,4.383,0,0,1-.935.466h0c-.279.186-.652.28-.932.466h0a8.372,8.372,0,0,1-.935.468h0c-.279.094-.559.28-.838.373h0c-.281.187-.561.28-.842.467h0c-.28.093-.56.279-.84.373h0a3.3,3.3,0,0,1-.839.373h0c-.282.188-.468.282-.748.468h0a5.491,5.491,0,0,0-.746.373h0a5.413,5.413,0,0,0-.748.373h0a5.506,5.506,0,0,0-.747.374h0c-.279.094-.466.28-.747.374h0c-.186.093-.467.28-.653.373h0c-.186.094-.466.28-.653.373h0a1.506,1.506,0,0,0-.654.373c-.186.094-.467.186-.654.28s-.372.281-.559.375h0a4.421,4.421,0,0,0-.654.28h0l-.56.373-.561.28h0c-.187.092-.374.28-.56.373s-.279.188-.466.282l-.56.279h0c-.187.093-.281.186-.467.28s-.281.187-.468.279h0c-.185.094-.279.187-.465.281l-.469.279-.373.28-.466.281c-.093.094-.28.187-.373.28l-.373.28a.486.486,0,0,0-.375.187l-.373.279-.373.187h0l-.28.282-.373.186-.281.186-.28.28-.28.187h0l-.28.187-.279.186-.28.187-.187.186-.281.189h0l-.186.186-.187.186-.281.187-.186.093-.187.187-.186.093-.093.186-.189.094-.186.187-.093.093c-1.588,1.4-2.987,4.108-4.108,7.563a79.752,79.752,0,0,0,104.1,0c-1.214-3.455-2.522-6.163-4.109-7.563-2.8-2.427-9.056-7.375-29.034-16.524v-.093l-3.735-1.681c-.654-.28-1.307-.56-1.867-.841l-13.351,26.236-13.164-26.236,3.454-.747-3.827.84h0c-1.4.654-2.708,1.214-4.014,1.869l-.187.093h0a22.192,22.192,0,0,0-2.614,1.213Zm0,0c-.653.279-1.308.561-1.961.841"/><path class="d" d="M316.411,146.682l-1.026-.561-13.351,26.236-13.165-26.236-.373.094h0l-.839.374,14.377,28.66Z"/><path class="b" d="M315.384,146.121l-3.736-.559-19.325-.187-3.454.746,13.165,26.236Z"/><path class="e" d="M273.746,101.122c-7.1-1.307-1.028,19.7,4.013,16.524l2.8,8.123c2.428,7.282,8.682,13.911,13.444,19.139,1.867,2.054,13.258,2.054,15.125.094,5.228-5.508,11.482-11.764,13.817-19.326l2.52-8.03c5.135,3.175,11.111-17.831,4.109-16.524.466-16.338-11.017-32.21-27.915-32.3-16.9.093-28.475,15.965-27.914,32.3Z"/><path class="f" d="M278.879,117.833s-8.4-18.766-5.227-34.917c0,0,1.867-15.964,19.045-18.859,0,0,17.458-4.853,23.527,4.762,0,0,15.591.841,15.312,14.564,0,0-.562,22.033-8.4,34.45,0,0,3.362-17.272-1.866-21.286,0,0,2.519-9.8-3.735-10.269,0,0-8.495,6.535-18.019,8.122,0,0,6.442-3.268,9.057-8.59,0,0-13.538,9.9-25.115,11.952a26.923,26.923,0,0,0,6.163-10.27s-6.163,8.5-10.084,11.3Z"/><path class="a" d="M322.573,146.868Z"/><path class="a" d="M318.277,146.4Z"/></g></g></svg>