<svg xmlns="http://www.w3.org/2000/svg" width="153.985" height="225.155" viewBox="0 0 153.985 225.155"><defs><style>.a{fill:#2d933f;}</style></defs><path class="a" d="M456.316,115.308a44.278,44.278,0,0,0-15.935-2.644,3.131,3.131,0,0,0-2.634,4.648l6,10.92,8.034-4.4a1.371,1.371,0,0,1,1.318,2.4l-8.032,4.4,2.724,4.96,8.028-4.4a1.371,1.371,0,0,1,1.318,2.405L449.11,138l2.1,3.828,8.021-4.4a1.371,1.371,0,1,1,1.318,2.4l-8.019,4.394L455,148.717a16.262,16.262,0,0,1,1.907,10.56,15.788,15.788,0,0,1-8,11.258l-36.441,20.016-1.319-2.4,25.638-14.081L427.7,157.528a1.36,1.36,0,0,1-.582.629l-9.215,5.049a1.371,1.371,0,0,1-1.318-2.4l9.215-5.049a1.351,1.351,0,0,1,.841-.152l-2.361-4.3a1.364,1.364,0,0,1-.578.622l-9.215,5.049a1.371,1.371,0,1,1-1.318-2.4l9.215-5.051a1.375,1.375,0,0,1,.832-.154l-2.977-5.42a1.364,1.364,0,0,1-.575.612l-9.215,5.049a1.371,1.371,0,1,1-1.318-2.4l9.215-5.051a1.365,1.365,0,0,1,.822-.155l-8.176-14.886a1.424,1.424,0,0,0-2.293-.274,44.341,44.341,0,0,0,34.159,74.442,21.185,21.185,0,0,0,1.362,3.028l66.967,122.2c5.266,9.608,17.013,13.992,27.048,9.591a21.021,21.021,0,0,0,10.045-29.377L481.083,184.1a21.2,21.2,0,0,0-2.385-3.479,44.325,44.325,0,0,0-22.382-65.316Z" transform="translate(-396.885 -112.656)"/></svg>