<svg xmlns="http://www.w3.org/2000/svg" width="686.354" height="409.899" viewBox="0 0 686.354 409.899"><defs><style>.a{fill:#2d933f;opacity:0.67;}.b,.c{fill:#cbece5;}.b{opacity:0.28;}</style></defs><g transform="translate(0 0)"><path class="a" d="M543.972,516.3l317.539-.931c27.174,0,70.27-11.317,86.809-32.573,35.4-45.5,59.343-161.316-59.534-206.295C731.637,217.04,814.233,106.4,675.857,106.4c-140.587,0-101.014,84.765-149.1,88.929-20.48,1.773-48.252,1.657-75.534.772-43.406-1.41-77.5,35.642-70.568,76.971,2,11.929,2.477,22.848.218,30.833-9.655,34.123-75.532,17.958-88.758,100.253C282.658,462.985,327.655,516.3,378.931,516.3Z" transform="translate(-290.848 -106.397)"/><path class="b" d="M528.68,516.3l273.266-.931c23.386,0,60.472-11.317,74.705-32.573,30.462-45.5,51.069-161.316-51.233-206.295C690.18,217.04,761.26,106.4,642.177,106.4c-120.986,0-86.93,84.765-128.314,88.929-17.624,1.773-41.524,1.657-65,.772-37.354-1.41-66.7,35.642-60.729,76.971,1.722,11.929,2.131,22.848.188,30.833-8.309,34.123-65,17.958-76.382,100.253C303.8,462.985,342.523,516.3,386.65,516.3Z" transform="translate(-282.111 -106.397)"/><path class="c" d="M560.637,516.3l276.4-.931c23.654,0,61.166-11.317,75.562-32.573,30.812-45.5,51.655-161.316-51.821-206.295C723.989,217.04,795.884,106.4,675.436,106.4c-122.373,0-87.927,84.765-129.785,88.929-17.828,1.773-42,1.657-65.75.772-37.782-1.41-67.46,35.642-61.425,76.971,1.742,11.929,2.156,22.848.19,30.833-8.4,34.123-65.746,17.958-77.258,100.253-8.231,58.832,30.937,112.143,75.57,112.143Z" transform="translate(-269.241 -106.397)"/></g></svg>