<svg xmlns="http://www.w3.org/2000/svg" width="84" height="84" viewBox="0 0 84 84"><defs><style>.a{fill:#2d933f;}.b{fill:#fff;}</style></defs><g transform="translate(6.236 -0.136)"><circle class="a" cx="42" cy="42" r="42" transform="translate(-6.236 0.136)"/><g transform="translate(3.764 25.518)"><path class="b" d="M66.024,61.576H62.438c-.857-4.15-1.365-9.022-6.992-11.537C58.424,47.773,58.13,44.9,58.13,42.4a6.766,6.766,0,0,0-13.533,0c0,2.684-.271,5.379,2.673,7.635-2.131.936-.361,1.015-3.09-1.207a13.826,13.826,0,0,0-4.037-2.255c3.586-2.56,3.383-5.988,3.383-8.683a7.894,7.894,0,0,0-15.788,0c0,2.5-.383,6.045,3.383,8.695a13.634,13.634,0,0,0-5.909,4.1,9.2,9.2,0,0,0-1.229-.654c2.876-2.278,2.571-5.154,2.571-7.635a6.766,6.766,0,0,0-13.533,0c0,2.684-.271,5.39,2.684,7.646-5.65,2.5-6.169,7.533-6.992,11.525H5.128a1.128,1.128,0,1,0,0,2.255h60.9a1.128,1.128,0,1,0,0-2.255ZM46.853,44.66V42.4a4.511,4.511,0,1,1,9.022,0V44.66a4.511,4.511,0,1,1-9.022,0ZM29.938,40.149V37.894a5.639,5.639,0,0,1,11.277,0v2.255a5.639,5.639,0,0,1-11.277,0ZM15.277,44.66V42.4a4.511,4.511,0,1,1,9.022,0V44.66a4.511,4.511,0,1,1-9.022,0ZM11.691,58.317a8.21,8.21,0,0,1,12.1-5.763c-1.545,2.594-1.8,5.041-2.661,9.022H15.593l.812-3.113a1.16,1.16,0,1,0-2.255-.541l-.88,3.654H11.014Zm32.794,3.259-1.128-4.759a1.128,1.128,0,1,0-2.188.553l.992,4.206h-13.1l.88-4.285a1.15,1.15,0,1,0-2.255-.451l-.925,4.736H23.442a58.236,58.236,0,0,1,1.3-5.74A11.446,11.446,0,0,1,44.9,52.859c1.748,2.436,1.917,4.511,2.808,8.717Zm13.4,0L57,57.922a1.128,1.128,0,0,0-2.188.541l.744,3.113H50.022c-.959-4.511-1.229-6.654-2.661-9.022a8.187,8.187,0,0,1,12.1,5.8l.665,3.225Z" transform="translate(-4 -30)"/></g></g></svg>