<svg xmlns="http://www.w3.org/2000/svg" width="234.69" height="234.69" viewBox="0 0 234.69 234.69"><defs><style>.a{fill:#2d933f;}</style></defs><path class="a" d="M754.893,307.244l-26.96-4.493a7.737,7.737,0,0,1-5.874-4.67l-4.525-10.92a7.733,7.733,0,0,1,.852-7.456l15.886-22.241a7.735,7.735,0,0,0-.825-9.966l-12.92-12.922a7.737,7.737,0,0,0-9.968-.825l-22.24,15.886a7.736,7.736,0,0,1-7.457.852l-10.919-4.523a7.732,7.732,0,0,1-4.67-5.874l-4.493-26.96a7.737,7.737,0,0,0-7.631-6.465H634.874a7.733,7.733,0,0,0-7.63,6.463l-4.495,26.96a7.737,7.737,0,0,1-4.67,5.877l-10.919,4.522a7.736,7.736,0,0,1-7.457-.852l-22.24-15.886a7.735,7.735,0,0,0-9.966.825L554.576,247.5a7.735,7.735,0,0,0-.826,9.966l15.888,22.24a7.736,7.736,0,0,1,.852,7.457l-4.523,10.919a7.738,7.738,0,0,1-5.875,4.671l-26.959,4.493a7.736,7.736,0,0,0-6.465,7.631v18.273a7.736,7.736,0,0,0,6.465,7.631l26.054,4.342a7.592,7.592,0,0,1,6.035,5.151,82.274,82.274,0,0,0,4.472,11.336,7.569,7.569,0,0,1-.74,7.67l-15.2,21.282a7.737,7.737,0,0,0,.825,9.966L567.5,413.449a7.735,7.735,0,0,0,9.966.825l20.764-14.831a7.57,7.57,0,0,1,7.851-.657,82.267,82.267,0,0,0,11.965,5.036,7.614,7.614,0,0,1,5.026,6.028l4.174,25.043a7.737,7.737,0,0,0,7.631,6.465h18.274a7.737,7.737,0,0,0,7.631-6.465l4.174-25.043a7.614,7.614,0,0,1,5.026-6.028,82.268,82.268,0,0,0,11.965-5.036,7.551,7.551,0,0,1,7.841.651l20.792,14.85a7.713,7.713,0,0,0,9.949-.838l12.922-12.922a7.737,7.737,0,0,0,.825-9.966l-15.2-21.282a7.569,7.569,0,0,1-.74-7.67,82.1,82.1,0,0,0,4.472-11.336,7.59,7.59,0,0,1,6.036-5.151l26.053-4.342a7.737,7.737,0,0,0,6.464-7.631V314.876A7.736,7.736,0,0,0,754.893,307.244ZM644.011,374.808a50.8,50.8,0,1,1,50.8-50.8A50.8,50.8,0,0,1,644.011,374.808Z" transform="translate(-526.667 -206.667)"/>
</svg>