<svg xmlns="http://www.w3.org/2000/svg" width="67.993" height="67.993" viewBox="0 0 67.993 67.993"><defs><style>.a{fill:#2d933f;}.b{fill:#fff;}</style></defs><g transform="translate(-2 -2.152)"><ellipse class="a" cx="33.997" cy="33.997" rx="33.997" ry="33.997" transform="translate(2 2.152)"/><g transform="translate(13 24.152)"><path class="b" d="M48.268,52.326H45.708c-.612-2.934-.974-6.379-4.99-8.157,2.125-1.6,1.916-3.636,1.916-5.4a4.829,4.829,0,0,0-9.658,0c0,1.9-.193,3.8,1.908,5.4-1.521.662-.258.718-2.205-.853A9.894,9.894,0,0,0,29.8,41.721c2.559-1.81,2.415-4.234,2.415-6.14a5.634,5.634,0,0,0-11.268,0c0,1.77-.274,4.274,2.415,6.148a9.732,9.732,0,0,0-4.218,2.9,6.588,6.588,0,0,0-.877-.462c2.052-1.611,1.835-3.644,1.835-5.4a4.829,4.829,0,0,0-9.658,0c0,1.9-.193,3.811,1.916,5.406-4.032,1.77-4.4,5.326-4.99,8.149H4.8a.8.8,0,1,0,0,1.595H48.268a.8.8,0,1,0,0-1.595ZM34.585,40.366V38.771a3.22,3.22,0,0,1,6.439,0v1.595a3.22,3.22,0,0,1-6.439,0ZM22.512,37.176V35.582a4.025,4.025,0,0,1,8.049,0v1.595a4.025,4.025,0,0,1-8.049,0ZM12.049,40.366V38.771a3.22,3.22,0,0,1,6.439,0v1.595a3.22,3.22,0,0,1-6.439,0ZM9.489,50.022a5.812,5.812,0,0,1,3.254-4.25,5.908,5.908,0,0,1,5.382.176c-1.1,1.834-1.288,3.564-1.9,6.379H12.274l.58-2.2a.82.82,0,0,0-.612-.989.828.828,0,0,0-1,.606l-.628,2.583H9.006Zm23.406,2.3-.8-3.365a.806.806,0,0,0-.978-.578.8.8,0,0,0-.584.969l.708,2.974H21.884l.628-3.03a.821.821,0,0,0-1.61-.319l-.66,3.349H17.876a40.85,40.85,0,0,1,.926-4.059,8.2,8.2,0,0,1,14.391-2.105c1.248,1.722,1.368,3.189,2,6.164Zm9.562,0-.628-2.583a.806.806,0,0,0-.967-.553.8.8,0,0,0-.595.935l.531,2.2H36.847c-.684-3.189-.877-4.7-1.9-6.379a5.892,5.892,0,0,1,5.4-.179,5.8,5.8,0,0,1,3.241,4.277l.475,2.28Z" transform="translate(-4 -30)"/></g></g></svg>