<svg xmlns="http://www.w3.org/2000/svg" width="23.893" height="16.129" viewBox="0 0 23.893 16.129"><defs><style>.a{fill:#89c64f;}</style></defs><path class="a" d="M.072,18.768V5.5q0-.023.069-.438l7.811,6.682L.164,19.229a1.953,1.953,0,0,1-.092-.461ZM1.109,4.137A.993.993,0,0,1,1.5,4.068H22.537a1.3,1.3,0,0,1,.415.069l-7.834,6.7-1.037.829L12.03,13.353,9.98,11.671l-1.037-.829Zm.023,15.99,7.857-7.534,3.041,2.465,3.041-2.465,7.857,7.534a1.106,1.106,0,0,1-.392.069H1.5a1.043,1.043,0,0,1-.369-.069Zm14.977-8.387L23.9,5.059a1.375,1.375,0,0,1,.069.438V18.768a1.766,1.766,0,0,1-.069.461Z" transform="translate(-0.072 -4.068)"/></svg>