<svg xmlns="http://www.w3.org/2000/svg" width="84" height="84" viewBox="0 0 84 84"><defs><style>.a{fill:#2d933f;}.b{fill:#fff;}</style></defs><g transform="translate(0)"><path class="a" d="M42,0A42,42,0,1,1,0,42,42,42,0,0,1,42,0Z" transform="translate(0)"/><g transform="translate(22.957 16.64)"><path class="b" d="M46.061,45.05,40.414,30.2a4.835,4.835,0,0,0,1.426-1.3,4.754,4.754,0,0,0,.762-3.973,3.231,3.231,0,0,1,1.088-3.272,4.767,4.767,0,0,0-.009-7.38A3.23,3.23,0,0,1,42.6,11a4.751,4.751,0,0,0-.764-3.965,4.873,4.873,0,0,0-3.632-2,3.323,3.323,0,0,1-2.84-2.029A4.835,4.835,0,0,0,32.379.244a4.913,4.913,0,0,0-4.108.489,3.377,3.377,0,0,1-3.521,0A4.913,4.913,0,0,0,20.643.244a4.836,4.836,0,0,0-2.988,2.766,3.325,3.325,0,0,1-2.848,2.03,4.867,4.867,0,0,0-3.624,2,4.754,4.754,0,0,0-.762,3.973,3.231,3.231,0,0,1-1.088,3.272,4.766,4.766,0,0,0,.009,7.38,3.23,3.23,0,0,1,1.076,3.274,4.751,4.751,0,0,0,.764,3.965,4.835,4.835,0,0,0,1.426,1.3L6.961,45.05a.781.781,0,0,0,.994,1.013l6.151-2.211,3.126,5.74a.781.781,0,0,0,.686.408l.053,0a.781.781,0,0,0,.677-.5L23.935,35.6a4.919,4.919,0,0,0,.816-.4,3.377,3.377,0,0,1,3.52,0h0a4.911,4.911,0,0,0,.814.393l5.289,13.9a.781.781,0,0,0,.677.5l.053,0a.781.781,0,0,0,.686-.408l3.126-5.74,6.151,2.211a.781.781,0,0,0,.994-1.013Zm-28.27,2.3-2.634-4.836a.782.782,0,0,0-.95-.362L9.025,44.018l5.034-13.236a4.984,4.984,0,0,0,.755.117,3.323,3.323,0,0,1,2.84,2.029,4.835,4.835,0,0,0,2.989,2.766,4.939,4.939,0,0,0,1.494.239ZM23.93,33.875a3.348,3.348,0,0,1-2.8.333A3.276,3.276,0,0,1,19.1,32.336a4.9,4.9,0,0,0-4.188-3,3.31,3.31,0,0,1-2.465-1.356,3.2,3.2,0,0,1-.512-2.672,4.8,4.8,0,0,0-1.608-4.861,3.2,3.2,0,0,1,.009-4.971,4.8,4.8,0,0,0,1.6-4.862,3.191,3.191,0,0,1,.514-2.663A3.315,3.315,0,0,1,14.921,6.6a4.895,4.895,0,0,0,4.18-3A3.272,3.272,0,0,1,21.127,1.73a3.352,3.352,0,0,1,2.8.333,4.953,4.953,0,0,0,5.163,0,3.352,3.352,0,0,1,2.8-.333A3.276,3.276,0,0,1,33.922,3.6a4.9,4.9,0,0,0,4.188,3,3.311,3.311,0,0,1,2.465,1.356,3.2,3.2,0,0,1,.512,2.672A4.8,4.8,0,0,0,42.7,15.487a3.2,3.2,0,0,1-.009,4.971,4.8,4.8,0,0,0-1.6,4.862,3.19,3.19,0,0,1-.514,2.663A3.315,3.315,0,0,1,38.1,29.34a4.895,4.895,0,0,0-4.18,3A3.272,3.272,0,0,1,31.9,34.207a3.345,3.345,0,0,1-2.8-.333,4.953,4.953,0,0,0-5.163,0Zm14.885,8.28a.781.781,0,0,0-.95.362l-2.634,4.836L30.886,35.934a4.941,4.941,0,0,0,1.493-.24,4.838,4.838,0,0,0,2.99-2.766,3.322,3.322,0,0,1,2.847-2.03,4.939,4.939,0,0,0,.747-.115L44,44.018Z" transform="translate(-6.91 -0.001)"/><path class="b" d="M40.437,19.719A11.719,11.719,0,1,0,28.719,31.437,11.719,11.719,0,0,0,40.437,19.719ZM28.719,29.875A10.156,10.156,0,1,1,38.875,19.719,10.156,10.156,0,0,1,28.719,29.875Z" transform="translate(-9.117 -1.75)"/><path class="b" d="M36.286,18.451,32.477,17.9l-1.7-3.452a.813.813,0,0,0-1.4,0l-1.7,3.452-3.809.554a.781.781,0,0,0-.433,1.333l2.757,2.687-.651,3.794a.781.781,0,0,0,1.133.824L30.073,25.3l3.407,1.791a.781.781,0,0,0,1.133-.824l-.651-3.794,2.757-2.687a.781.781,0,0,0-.433-1.333Zm-3.709,3.187a.782.782,0,0,0-.224.692l.452,2.638-2.37-1.246a.781.781,0,0,0-.727,0L27.34,24.968l.452-2.638a.782.782,0,0,0-.224-.692l-1.917-1.868,2.649-.385a.78.78,0,0,0,.588-.428l1.185-2.4,1.185,2.4a.78.78,0,0,0,.588.428l2.649.385Z" transform="translate(-10.471 -3.073)"/></g></g></svg>