<svg xmlns="http://www.w3.org/2000/svg" width="100" height="100" viewBox="0 0 100 100"><defs><style>.a{fill:#2d933f;}.b{fill:#fff;}</style></defs><g transform="translate(-226 -1010.153)"><circle class="a" cx="50" cy="50" r="50" transform="translate(226 1010.153)"/><path class="b" d="M46.546,7.349H35.93V4.083A4.088,4.088,0,0,0,31.847,0h-14.7a4.088,4.088,0,0,0-4.083,4.083V7.349H2.45A2.45,2.45,0,0,0,0,9.8V27.976a2.46,2.46,0,0,0,1.633,2.305V41.646a2.45,2.45,0,0,0,2.45,2.45h40.83a2.45,2.45,0,0,0,2.45-2.45V30.282A2.461,2.461,0,0,0,49,27.976V9.8a2.45,2.45,0,0,0-2.45-2.45ZM14.7,4.083a2.45,2.45,0,0,1,2.45-2.45h14.7a2.45,2.45,0,0,1,2.45,2.45V7.349H32.664V4.083a.817.817,0,0,0-.817-.817h-14.7a.817.817,0,0,0-.817.817V7.349H14.7ZM31.03,7.349H17.965V4.9H31.03Zm14.7,34.3a.817.817,0,0,1-.817.817H4.083a.817.817,0,0,1-.817-.817V30.562L21.231,33.04v2.073a2.45,2.45,0,0,0,2.45,2.45h1.633a2.45,2.45,0,0,0,2.45-2.45V33.04l17.965-2.478Zm-19.6-6.533a.817.817,0,0,1-.817.817H23.681a.817.817,0,0,1-.817-.817v-4.9a.817.817,0,0,1,.817-.817h1.633a.817.817,0,0,1,.817.817Zm21.231-7.137a.817.817,0,0,1-.7.809l-.226.031-18.67,2.575V30.214a2.45,2.45,0,0,0-2.45-2.45H23.681a2.45,2.45,0,0,0-2.45,2.45v1.177l-18.9-2.606a.817.817,0,0,1-.7-.809V9.8a.817.817,0,0,1,.817-.817h44.1a.817.817,0,0,1,.817.817Zm0,0" transform="translate(251.513 1038.153)"/></g></svg>