<svg xmlns="http://www.w3.org/2000/svg" width="122.217" height="145.524" viewBox="0 0 122.217 145.524"><defs><style>.a{fill:#25b13e;}.b{fill:#2d933f;}.c{fill:#40b78d;}.d{fill:#42cc9c;}.e{fill:#25b23e;}.f{fill:#fac68f;}.g{fill:#ffd6aa;}</style></defs><g transform="translate(-41)"><path class="a" d="M192.682,211.585H123.419a4.263,4.263,0,0,1-4.263-4.263V190.268a4.266,4.266,0,0,1,1.018-2.765,49.735,49.735,0,0,1,75.754,0,4.264,4.264,0,0,1,1.018,2.765v17.054A4.264,4.264,0,0,1,192.682,211.585Z" transform="translate(-55.942 -121.682)"/><path class="b" d="M290.631,211.585a4.263,4.263,0,0,0,4.263-4.263V190.268a4.266,4.266,0,0,0-1.018-2.765A49.689,49.689,0,0,0,256,170v41.585Z" transform="translate(-153.891 -121.682)"/><path class="c" d="M130.74,297.267a4.261,4.261,0,0,1-1.5-.271L83.766,279.942A4.263,4.263,0,0,1,81,275.95V216.263a4.263,4.263,0,0,1,5.76-3.992l43.979,16.492,43.979-16.492a4.263,4.263,0,0,1,5.76,3.992V275.95a4.263,4.263,0,0,1-2.766,3.992L132.237,297A4.261,4.261,0,0,1,130.74,297.267Z" transform="translate(-28.631 -151.743)"/><g transform="translate(102.109 60.256)"><path class="d" d="M302.973,279.942a4.263,4.263,0,0,0,2.766-3.992V216.263a4.263,4.263,0,0,0-5.76-3.992L256,228.763v68.5a4.261,4.261,0,0,0,1.5-.271Z" transform="translate(-256 -211.999)"/></g><path class="e" d="M184.423,56.845a28.423,28.423,0,1,1,28.423-28.423A28.454,28.454,0,0,1,184.423,56.845Z" transform="translate(-82.314)"/><path class="b" d="M284.423,28.423A28.455,28.455,0,0,0,256,0V56.845A28.455,28.455,0,0,0,284.423,28.423Z" transform="translate(-153.891)"/><g transform="translate(41 83.847)"><g transform="translate(0)"><path class="f" d="M405.237,319.159h-4.263A4.98,4.98,0,0,1,396,314.185V299.974A4.98,4.98,0,0,1,400.974,295h4.263a12.08,12.08,0,0,1,0,24.159Z" transform="translate(-295.1 -295)"/><path class="g" d="M57.343,319.159H53.08a12.08,12.08,0,0,1,0-24.159h4.263a4.98,4.98,0,0,1,4.974,4.974v14.211A4.98,4.98,0,0,1,57.343,319.159Z" transform="translate(-41 -295)"/></g></g></g></svg>