<svg xmlns="http://www.w3.org/2000/svg" width="169.646" height="169.647" viewBox="0 0 169.646 169.647"><defs><style>.a{fill:#fcfcfc;}.a,.b,.c,.d,.e,.f,.g,.h,.i,.j,.k,.l,.m{fill-rule:evenodd;}.b{fill:#fddccc;}.c{fill:#89c64f;}.d{fill:#f0b97d;}.e{fill:#fed198;}.f{fill:#fff;}.g{fill:#e5e6e7;}.h{fill:#7db746;}.i{fill:#2d933f;}.j{fill:#fefefe;}.k{fill:#8fa7af;}.l{fill:#1c96cc;}.m{fill:#3d380c;}</style></defs><g transform="translate(-26.34 -32.502)"><path class="a" d="M195.986,117.325a84.823,84.823,0,1,0-84.822,84.824,84.849,84.849,0,0,0,84.822-84.824Z"/><path class="b" d="M96.383,139.306c-29.267,12.8-38,19.643-41.468,22.719-1.884,1.588-3.472,4.861-4.862,9.028a84.916,84.916,0,0,0,119.15,0c-1.389-4.168-2.977-7.441-4.862-9.028-3.474-3.076-11.9-9.722-41.172-22.619Z" transform="translate(1.485 6.69)"/><path class="c" d="M96.383,139.306c-29.267,12.8-38,19.643-41.468,22.719-1.884,1.588-3.472,4.861-4.862,9.028a84.916,84.916,0,0,0,119.15,0c-1.389-4.168-2.977-7.441-4.862-9.028-3.474-3.076-11.9-9.722-41.172-22.619Z" transform="translate(1.485 6.69)"/><path class="d" d="M122.867,122.6H91.319c4.863,18.65.4,27.085.4,27.085s6.846,6.943,15.379,6.943c8.432,0,15.278-6.943,15.278-6.943s-4.465-8.434.5-27.085Z" transform="translate(4.07 5.643)"/><path class="e" d="M80.393,98.418c-6.844-1.29-.993,19.345,4.068,16.27l2.678,7.937c2.481,7.243,8.632,13.69,13.294,18.849,1.786,2.083,13,1.984,14.881.1,5.159-5.458,11.311-11.607,13.592-18.949l2.48-7.937c5.059,3.075,11.012-17.56,4.067-16.27.5-16.071-10.912-31.646-27.479-31.746-16.67.1-28.077,15.675-27.581,31.746Z" transform="translate(3.191 2.14)"/><path class="f" d="M125.49,126.422Z" transform="translate(6.211 5.883)"/><path class="f" d="M121.474,125.956Z" transform="translate(5.959 5.854)"/><path class="g" d="M107.328,152.377s-19.743,4.662-19.743,5.951c0,.895,4.563,24.8,6.547,35.319a82.469,82.469,0,0,0,13.2.994,84.317,84.317,0,0,0,15.079-1.291l2.678-34.922Z" transform="translate(3.836 7.509)"/><path class="h" d="M93.814,139.68v6.448l5.753,48.91a85.3,85.3,0,0,1-13.491-2.481l-8.334-16.964,11.111-7.441L75.261,161.8l12.5-19.445Z" transform="translate(3.064 6.714)"/><path class="h" d="M119.852,139.68v6.448l-5.753,48.91a85.912,85.912,0,0,0,13.392-2.382l8.434-17.063-11.211-7.441L138.4,161.8l-11.211-18.85Z" transform="translate(5.497 6.714)"/><path class="i" d="M100.374,158.926l3.473,5.355h5.259l3.472-5.355-6.051-6.549Z" transform="translate(4.637 7.509)"/><path class="i" d="M103.9,163.579l-4.364,30.062c2.281.2,4.663.3,7.044.3,2.28,0,4.662-.1,6.943-.3l-4.364-30.062Z" transform="translate(4.585 8.211)"/><path class="j" d="M93.582,136.505,91.6,140.375l3.472,25.2,12.005-12.2Z" transform="translate(4.088 6.515)"/><path class="j" d="M119.656,136.505l1.687,3.869-3.275,25.4-11.9-12.4Z" transform="translate(5 6.515)"/><path class="k" d="M109.006,163.78h0l-.1-.2Zm-5.457,0h0l.1-.2Z" transform="translate(4.836 8.211)"/><path class="l" d="M109.006,163.779h-5.456l.1-.2h5.259Z" transform="translate(4.836 8.211)"/><path class="m" d="M84.512,115.227c-2.381-8.235-6.945-23.613-4.764-27.978,0,0-4.959-6.647,2.084-13,0,0,.993-10.417,11.906-4.763,0,0,4.364-12.2,29.564-3.572l-3.868.695c19.344,10.615,20.238,11.111,15.873,32.837-.893,4.169-2.679,8.731-3.771,14.782,0,0,1.786-12.8-2.379-17.46,0,0,3.373-8.433-2.978-11.8,0,0-3.968-2.978-7.441-.4,0,0-11.806,2.978-18.75-.3,0,0-6.249-2.975-9.326.895,0,0-4.265,3.67-1.588,12.2,0,0-5.258.993-4.562,17.859Z" transform="translate(3.239 1.9)"/><path class="m" d="M107.513,119.98c-.4,0-.694.6-.694.6s-.3-.6-.7-.6c-1.685,0-8.532.695-10.415,3.175,0,0,9.523-.2,10.117-.3.5-.2.994-1.192.994-1.192s.4.994.991,1.192c.5.1,10.121.3,10.121.3-1.986-2.48-8.832-3.175-10.418-3.175Z" transform="translate(4.345 5.48)"/></g></svg>