<svg xmlns="http://www.w3.org/2000/svg" width="312.828" height="346.132" viewBox="0 0 312.828 346.132"><defs><style>.a,.h{fill:#2d933f;}.b,.d{fill:#fff;}.c{fill:#cbece5;}.d{stroke:#cbece5;}.d,.h,.i,.m{stroke-miterlimit:10;}.e{fill:#89c64f;}.f,.k,.l{fill:#008196;}.f{opacity:0.2;}.g{fill:#53c7b4;opacity:0.65;}.h,.i,.m{stroke:#fff;stroke-linecap:round;}.h,.i{stroke-width:0.75px;}.i,.m{fill:none;}.j{fill:#faf4da;}.k{opacity:0.06;}</style></defs><g transform="translate(-148.506 -43.411)"><path class="a" d="M562.792,378.164H471.178l8.938-37.986h73.738Z" transform="translate(-212.066 -4.262)"/><path class="a" d="M4,0H308.828a4,4,0,0,1,4,4V208.276a4,4,0,0,1-4,4H4a4,4,0,0,1-4-4V4A4,4,0,0,1,4,0Z" transform="translate(148.506 122.522)"/><rect class="b" width="274.841" height="154.179" transform="translate(167.5 139.28)"/><g transform="translate(202.789 154.853)"><g transform="translate(76.634 58.673)"><rect class="c" width="52.686" height="62.265"/><rect class="d" width="31.731" height="31.731" rx="6.625" transform="translate(10.477 4.191)"/></g><g transform="translate(0 58.673)"><rect class="c" width="52.686" height="62.265"/><rect class="d" width="31.731" height="31.731" rx="6.625" transform="translate(10.477 4.191)"/></g><g transform="translate(155.662 58.673)"><rect class="c" width="52.686" height="62.265"/><rect class="d" width="31.731" height="31.731" rx="6.625" transform="translate(10.477 4.191)"/></g><rect class="c" width="208.348" height="4.79" transform="translate(0.748)"/><rect class="c" width="208.348" height="4.79" transform="translate(1.946 15.566)"/><rect class="c" width="208.348" height="4.79" transform="translate(1.946 29.935)"/><rect class="c" width="208.348" height="4.79" transform="translate(1.946 44.304)"/></g><path class="e" d="M0,0H312.828a0,0,0,0,1,0,0V25.49a3.559,3.559,0,0,1-3.559,3.559H3.559A3.559,3.559,0,0,1,0,25.49V0A0,0,0,0,1,0,0Z" transform="translate(148.506 307.027)"/><path class="e" d="M6.531,0H118.6a6.531,6.531,0,0,1,6.531,6.531v9.11a0,0,0,0,1,0,0H0a0,0,0,0,1,0,0V6.531A6.531,6.531,0,0,1,6.531,0Z" transform="translate(242.354 373.901)"/><path class="f" d="M582.126,263.092a96.341,96.341,0,0,0-19.156-26.837l-2.888-2.849a77.787,77.787,0,0,1-18.44-28.723l-2.658-7.3-.878,62.618c-.1-.088-.188-.184-.287-.269l1.162-89.305a35.244,35.244,0,0,0-8.345-22.658l-4.588-5.45a4.424,4.424,0,0,0-6.779.01l-4.94,5.9a33.685,33.685,0,0,0-7.913,21.675l.6,87.9c-.036.022-.073.042-.109.065l-.322-61.315-2.721,7.271a77.774,77.774,0,0,1-18.691,28.559l-2.913,2.825a96.341,96.341,0,0,0-19.392,26.667,1.613,1.613,0,0,0,1.424,2.325l12.972.2a8.583,8.583,0,0,0-.9,3.657,8.739,8.739,0,0,0,8.582,8.845l2.752.042a8.741,8.741,0,0,0,8.845-8.583h0a8.581,8.581,0,0,0-.787-3.683l4.486.068a20.506,20.506,0,0,0-2.908,10.259l5.166.069-.072,5.275,17.429.236-.019,1.375a1.376,1.376,0,1,0,2.752.037l.019-1.375,17.429.236.07-5.275,4.891.066a20.549,20.549,0,0,0-2.44-10.012l6.656-.042a8.6,8.6,0,0,0-.819,3.674h0a8.742,8.742,0,0,0,8.771,8.66l2.752-.019a8.739,8.739,0,0,0,8.66-8.769,8.565,8.565,0,0,0-.867-3.664l12.974-.082A1.613,1.613,0,0,0,582.126,263.092Z" transform="translate(-215.771 -91.391)"/><g transform="translate(221.567 43.411)"><path class="g" d="M612.6,330.307a29.145,29.145,0,0,0-35.918-24.733,19.922,19.922,0,0,0-34.089-17.24l-.168-74.994-28.887.065.165,73.679a19.871,19.871,0,0,0-32.729,18.082,29.045,29.045,0,0,0-32.366,26.23,12.393,12.393,0,0,0,8.844,21.068l147.186-.33a12.373,12.373,0,0,0,7.962-21.826Z" transform="translate(-445.048 -103.086)"/><g transform="translate(27.935)"><g transform="translate(0 39.839)"><path class="a" d="M505.576,164.335l-2.487,7.071a75.077,75.077,0,0,1-17.49,27.933l-2.757,2.783a93.052,93.052,0,0,0-18.2,26.12h0a1.557,1.557,0,0,0,1.42,2.217l41.187-.205Z" transform="translate(-464.49 -164.335)"/><path class="a" d="M498.631,213.427l-1.165,3.315a35.2,35.2,0,0,1-8.2,13.094l-1.293,1.3a43.612,43.612,0,0,0-8.534,12.245h0a.73.73,0,0,0,.665,1.039l19.307-.1Z" transform="translate(-457.989 -142.888)"/><path class="a" d="M513.486,213.427l1.167,3.315a35.166,35.166,0,0,0,8.2,13.094l1.292,1.3a43.583,43.583,0,0,1,8.534,12.245h0a.73.73,0,0,1-.665,1.039l-19.307-.1Z" transform="translate(-443.426 -142.888)"/><path class="h" d="M501.953,174.032l-1.717,4.88a51.821,51.821,0,0,1-12.07,19.277l-1.9,1.921A64.19,64.19,0,0,0,473.7,218.134h0a1.076,1.076,0,0,0,.98,1.53l28.423-.142" transform="translate(-460.51 -160.099)"/></g><g transform="translate(70.794 40.006)"><path class="a" d="M514.866,164.451l2.707,6.992a75.094,75.094,0,0,0,18.358,27.37l2.842,2.7a92.988,92.988,0,0,1,19.014,25.536h0a1.558,1.558,0,0,1-1.349,2.26l-41.174,1.085Z" transform="translate(-513.275 -164.451)"/><path class="i" d="M514.967,173.707l1.711,4.883a51.8,51.8,0,0,0,12.045,19.292l1.9,1.924a64.2,64.2,0,0,1,12.54,18.04h0a1.075,1.075,0,0,1-.982,1.529l-28.423-.178" transform="translate(-513.759 -160.407)"/></g><g transform="translate(36.747)"><path class="j" d="M490.656,264.518l-.592-100.846c.009-7.394,3.5-14.521,9.9-20.181l6.157-5.452a6.733,6.733,0,0,1,8.426.1l5.684,5.183c6.677,6.088,10.317,13.635,10.308,21.374l-2.071,99.064Z" transform="translate(-490.064 -136.609)"/><path class="a" d="M530.537,164.7c.009-7.739-3.631-15.286-10.308-21.374l-5.684-5.183a6.733,6.733,0,0,0-8.426-.1l-6.157,5.452c-6.394,5.66-9.889,12.787-9.9,20.181l1.081-.756a32.351,32.351,0,0,1,39.392,1.783Z" transform="translate(-490.064 -136.609)"/><path class="k" d="M522.02,157.223,512.2,162.2l-3.362,82.064,12.188.442Z" transform="translate(-481.864 -127.603)"/><path class="k" d="M490.152,158.574l9.793,5.243,2.865,82.147-12.19.116Z" transform="translate(-490.026 -127.012)"/><circle class="l" cx="10.777" cy="10.777" r="10.777" transform="translate(9.487 38.4)"/><path class="m" d="M493.333,149.3s16.764-7.184,31.133,0" transform="translate(-488.636 -132.457)"/><path class="m" d="M498.338,142.154a42.068,42.068,0,0,1,15.357-.581" transform="translate(-486.449 -134.642)"/></g><g transform="translate(33.676 94.313)"><path class="a" d="M509.434,213.651h0a18.159,18.159,0,0,0-18.04,18.279l.04,6.2,36.317-.239-.04-6.2A18.16,18.16,0,0,0,509.434,213.651Z" transform="translate(-486.412 -197.263)"/><path class="a" d="M513.9,213.175l-6.169.042a19.93,19.93,0,0,0-19.8,20.06h0l46.029-.3h0A19.932,19.932,0,0,0,513.9,213.175Z" transform="translate(-487.927 -197.471)"/><path class="a" d="M504.56,245.651h0a1.333,1.333,0,0,1-1.338-1.32l-.267-40.747a1.334,1.334,0,0,1,1.32-1.338h0a1.335,1.335,0,0,1,1.338,1.32l.266,40.747A1.333,1.333,0,0,1,504.56,245.651Z" transform="translate(-481.361 -202.246)"/></g></g></g></g></svg>