<svg xmlns="http://www.w3.org/2000/svg" width="23.99" height="23.996" viewBox="0 0 23.99 23.996"><defs><style>.a,.b{fill:#2d933f;}.b{fill-rule:evenodd;}</style></defs><g transform="translate(0)"><path class="a" d="M677.323,165.915a12,12,0,1,1-8.481,3.513,11.978,11.978,0,0,1,8.481-3.513Zm7.817,4.177a11.056,11.056,0,1,0,3.241,7.824,11.016,11.016,0,0,0-3.241-7.824Z" transform="translate(-665.328 -165.915)"/><path class="b" d="M701.814,196.387a5.358,5.358,0,0,1-1.441.392,2.479,2.479,0,0,0,1.109-1.375,5.117,5.117,0,0,1-1.6.6,2.523,2.523,0,0,0-4.351,1.687,2.584,2.584,0,0,0,.073.565,7.132,7.132,0,0,1-5.181-2.584,2.441,2.441,0,0,0,.771,3.3,2.431,2.431,0,0,1-1.135-.306v.033a2.34,2.34,0,0,0,.172.89,2.506,2.506,0,0,0,1.847,1.528,2.47,2.47,0,0,1-.664.093,2.235,2.235,0,0,1-.472-.053,2.534,2.534,0,0,0,2.345,1.727,5.081,5.081,0,0,1-3.115,1.056c-.206,0-.4-.014-.6-.033a7.251,7.251,0,0,0,3.852,1.109,6.99,6.99,0,0,0,6.98-5.539,6.8,6.8,0,0,0,.166-1.494v-.319a5.193,5.193,0,0,0,1.249-1.282Z" transform="translate(-683.696 -188.125)"/></g></svg>